<svg width="40" height="40" viewBox="0 0 40 40" fill="none" xmlns="http://www.w3.org/2000/svg">
<path d="M20.0002 26.6668L26.6668 20.0002L20.0002 13.3335L17.6668 15.6668L20.3335 18.3335H13.3335V21.6668H20.3335L17.6668 24.3335L20.0002 26.6668ZM20.0002 36.6668C17.6946 36.6668 15.5279 36.2291 13.5002 35.3535C11.4724 34.4791 9.7085 33.2918 8.2085 31.7918C6.7085 30.2918 5.52127 28.5279 4.64683 26.5002C3.77127 24.4724 3.3335 22.3057 3.3335 20.0002C3.3335 17.6946 3.77127 15.5279 4.64683 13.5002C5.52127 11.4724 6.7085 9.7085 8.2085 8.2085C9.7085 6.7085 11.4724 5.52072 13.5002 4.64516C15.5279 3.77072 17.6946 3.3335 20.0002 3.3335C22.3057 3.3335 24.4724 3.77072 26.5002 4.64516C28.5279 5.52072 30.2918 6.7085 31.7918 8.2085C33.2918 9.7085 34.4791 11.4724 35.3535 13.5002C36.2291 15.5279 36.6668 17.6946 36.6668 20.0002C36.6668 22.3057 36.2291 24.4724 35.3535 26.5002C34.4791 28.5279 33.2918 30.2918 31.7918 31.7918C30.2918 33.2918 28.5279 34.4791 26.5002 35.3535C24.4724 36.2291 22.3057 36.6668 20.0002 36.6668Z" fill="white"/>
</svg>
